<svg width="160" height="106" viewBox="0 0 160 106" fill="none" xmlns="http://www.w3.org/2000/svg">
<rect width="160" height="106" fill="#F0F0F0"/>
<path fill-rule="evenodd" clip-rule="evenodd" d="M73.0593 38.6172C73.49 39.048 73.49 39.7463 73.0593 40.177L69.3828 43.8535C68.9521 44.2842 68.2538 44.2842 67.8231 43.8535L65.6172 41.6476C65.1864 41.2169 65.1864 40.5185 65.6172 40.0878C66.0479 39.6571 66.7462 39.6571 67.177 40.0878L68.6029 41.5138L71.4995 38.6172C71.9302 38.1865 72.6286 38.1865 73.0593 38.6172Z" fill="#D9D9D9"/>
<path fill-rule="evenodd" clip-rule="evenodd" d="M77.0439 41.603C77.0439 40.9857 77.5443 40.4854 78.1616 40.4854H94.3381C94.9553 40.4854 95.4557 40.9857 95.4557 41.603C95.4557 42.2203 94.9553 42.7206 94.3381 42.7206H78.1616C77.5443 42.7206 77.0439 42.2203 77.0439 41.603Z" fill="#D9D9D9"/>
<path fill-rule="evenodd" clip-rule="evenodd" d="M102.059 29.9118H57.9412C57.3726 29.9118 56.9118 30.3726 56.9118 30.9412V75.0588C56.9118 75.6274 57.3726 76.0882 57.9412 76.0882H102.059C102.627 76.0882 103.088 75.6274 103.088 75.0588V30.9412C103.088 30.3726 102.627 29.9118 102.059 29.9118ZM57.9412 28C56.3168 28 55 29.3168 55 30.9412V75.0588C55 76.6832 56.3168 78 57.9412 78H102.059C103.683 78 105 76.6832 105 75.0588V30.9412C105 29.3168 103.683 28 102.059 28H57.9412Z" fill="#D9D9D9"/>
<path d="M86.3166 70.6477C85.7648 70.6477 85.3176 70.2987 85.3176 69.8681V56.5042C85.3176 56.0736 85.7648 55.7246 86.3166 55.7246C86.8683 55.7246 87.3156 56.0736 87.3156 56.5042V69.8681C87.3156 70.2987 86.8683 70.6477 86.3166 70.6477Z" fill="#D9D9D9"/>
<path d="M72.0451 70.6474C71.4934 70.6474 71.0461 70.3156 71.0461 69.9064V59.3197C71.0461 58.9104 71.4934 58.5786 72.0451 58.5786C72.5969 58.5786 73.0442 58.9104 73.0442 59.3197V69.9064C73.0442 70.3156 72.5969 70.6474 72.0451 70.6474Z" fill="#D9D9D9"/>
<path d="M90.5981 57.7222H82.0352C81.4835 57.7222 81.0362 57.2749 81.0362 56.7232V49.5874C81.0362 49.0356 81.4835 48.5884 82.0352 48.5884C82.5869 48.5884 83.0342 49.0356 83.0342 49.5874V55.7241H89.5991V49.5874C89.5991 49.0356 90.0464 48.5884 90.5981 48.5884C91.1499 48.5884 91.5971 49.0356 91.5971 49.5874V56.7232C91.5971 57.2749 91.1499 57.7222 90.5981 57.7222Z" fill="#D9D9D9"/>
<path d="M86.3166 57.7222C85.7648 57.7222 85.3176 57.2749 85.3176 56.7232V49.5874C85.3176 49.0356 85.7648 48.5884 86.3166 48.5884C86.8683 48.5884 87.3156 49.0356 87.3156 49.5874V56.7232C87.3156 57.2749 86.8683 57.7222 86.3166 57.7222Z" fill="#D9D9D9"/>
<path d="M72.0452 60.5765C69.1336 60.5765 66.7648 57.8876 66.7648 54.5824C66.7648 51.2773 69.1336 48.5884 72.0452 48.5884C74.9569 48.5884 77.3257 51.2773 77.3257 54.5824C77.3257 57.8876 74.9569 60.5765 72.0452 60.5765ZM72.0452 50.5864C70.2353 50.5864 68.7628 52.379 68.7628 54.5824C68.7628 56.7858 70.2353 58.5785 72.0452 58.5785C73.8552 58.5785 75.3277 56.7858 75.3277 54.5824C75.3277 52.379 73.8552 50.5864 72.0452 50.5864Z" fill="#D9D9D9"/>
</svg>
