<?xml version="1.0" encoding="utf-8"?>
<!-- Generator: Adobe Illustrator 25.3.1, SVG Export Plug-In . SVG Version: 6.00 Build 0)  -->
<svg version="1.1" id="Layer_1" xmlns="http://www.w3.org/2000/svg" xmlns:xlink="http://www.w3.org/1999/xlink" x="0px" y="0px"
	 viewBox="0 0 50 50" style="enable-background:new 0 0 50 50;" xml:space="preserve">
<style type="text/css">
	.st0{fill-rule:evenodd;clip-rule:evenodd;fill:#FFFFFF;}
</style>
<path class="st0" d="M45.97,35.11c-1.14-0.63-6.77-3.66-7.83-4.09c-1.05-0.43-1.83-0.65-2.65,0.49c-0.82,1.13-3.16,3.68-3.86,4.43
	c-0.71,0.76-1.39,0.83-2.54,0.2c-1.14-0.63-4.85-2-9.16-6.14c-3.35-3.22-5.55-7.13-6.19-8.32c-0.64-1.19,0-1.8,0.6-2.36
	c0.55-0.51,1.22-1.32,1.83-1.98c0.6-0.66,0.82-1.14,1.24-1.9c0.42-0.76,0.25-1.45-0.02-2.05c-0.27-0.59-2.39-6.42-3.27-8.79
	c-0.89-2.37-1.87-2.02-2.55-2.05c-0.68-0.02-1.45-0.15-2.23-0.18C8.56,2.34,7.28,2.58,6.17,3.71c-1.11,1.13-4.24,3.84-4.45,9.58
	c-0.22,5.74,3.76,11.44,4.31,12.24c0.55,0.8,7.58,13.24,19.26,18.36c11.69,5.12,11.75,3.56,13.89,3.44
	c2.15-0.11,7.01-2.57,8.08-5.25c1.07-2.69,1.16-5.02,0.89-5.52C47.88,36.06,47.11,35.74,45.97,35.11L45.97,35.11z"/>
</svg>
