<?xml version="1.0" encoding="utf-8"?>
<!-- Generator: Adobe Illustrator 25.3.1, SVG Export Plug-In . SVG Version: 6.00 Build 0)  -->
<svg version="1.1" id="Layer_1" xmlns="http://www.w3.org/2000/svg" xmlns:xlink="http://www.w3.org/1999/xlink" x="0px" y="0px"
	 viewBox="0 0 50 50" style="enable-background:new 0 0 50 50;" xml:space="preserve">
<style type="text/css">
	.st0{fill:#FFFFFF;}
</style>
<g>
	<path class="st0" d="M24.65,47.63c-0.75-0.29-1.51-0.55-2.25-0.88c-8.12-3.61-13.14-9.77-15.02-18.43c-0.35-1.63-0.46-3.33-0.48-5
		c-0.06-4.4-0.02-8.81-0.02-13.21c0-1.02,0.5-1.51,1.5-1.55c3.86-0.16,6.8-1.88,8.76-5.22c0.4-0.67,0.89-0.98,1.67-0.97
		c4.14,0.02,8.28,0.02,12.42,0c0.75,0,1.23,0.29,1.61,0.93c1.97,3.37,4.93,5.11,8.83,5.26c0.94,0.04,1.46,0.55,1.46,1.51
		c0,4.45,0.02,8.9,0,13.34c-0.05,11.01-6.92,20.52-17.37,24.05c-0.13,0.05-0.26,0.12-0.39,0.18C25.12,47.63,24.89,47.63,24.65,47.63
		z M40.47,11.17c-0.09-0.02-0.11-0.04-0.14-0.04c-4.01-0.53-7.16-2.46-9.39-5.84c-0.16-0.24-0.35-0.26-0.59-0.26
		c-3.55,0-7.1,0.01-10.65-0.01c-0.34,0-0.52,0.1-0.71,0.38c-1.52,2.31-3.57,3.99-6.16,4.94c-1.05,0.39-2.16,0.61-3.3,0.92
		c0,0.04,0,0.16,0,0.27c0,3.99-0.02,7.98,0.01,11.98c0.01,1.17,0.07,2.37,0.29,3.52c1.62,8.65,6.56,14.57,14.78,17.73
		c0.23,0.09,0.55,0.09,0.79,0.01c9.11-3.27,15.03-11.67,15.07-21.38c0.01-3.93,0-7.87,0-11.8C40.47,11.45,40.47,11.32,40.47,11.17z"
		/>
	<path class="st0" d="M37.74,19.5c0,1.86,0.13,3.72-0.02,5.56c-0.46,5.67-2.96,10.31-7.35,13.93c-1.38,1.14-2.92,2.03-4.55,2.77
		c-0.55,0.25-1.06,0.26-1.61,0.01c-6.67-3.11-10.62-8.29-11.82-15.54c-0.16-0.94-0.19-1.91-0.2-2.86c-0.02-2.93-0.01-5.86-0.01-8.8
		c0-0.88,0.26-1.26,1.09-1.55c2.75-0.96,5.06-2.55,6.92-4.79c0.33-0.39,0.73-0.57,1.23-0.57c2.37,0.01,4.74,0.01,7.12,0
		c0.53,0,0.93,0.18,1.27,0.58c1.87,2.23,4.18,3.82,6.93,4.77c0.79,0.27,1.07,0.68,1.07,1.52c0,1.65,0,3.3,0,4.95
		C37.8,19.5,37.77,19.5,37.74,19.5z M35.1,20.03c0.02,0,0.05,0,0.07,0c0-1.47-0.01-2.95,0.01-4.42c0-0.24-0.06-0.36-0.3-0.46
		c-2.54-1.03-4.72-2.57-6.58-4.58c-0.12-0.13-0.34-0.23-0.52-0.23c-1.86-0.02-3.71-0.02-5.57,0c-0.17,0-0.39,0.11-0.52,0.24
		c-1.84,1.98-3.99,3.52-6.5,4.54c-0.27,0.11-0.37,0.24-0.37,0.55c0.02,2.11,0,4.21,0.01,6.32c0.01,1.12-0.03,2.25,0.11,3.35
		c0.72,5.65,3.49,10.04,8.38,12.98c2.01,1.21,1.33,1.21,3.31,0.01c5.05-3.05,7.88-7.57,8.43-13.45
		C35.22,23.28,35.1,21.65,35.1,20.03z"/>
	<path class="st0" d="M23.05,27.23c0.09-0.14,0.15-0.3,0.26-0.41c2.29-2.3,4.58-4.59,6.87-6.88c0.81-0.8,2.03-0.5,2.3,0.55
		c0.13,0.54-0.07,0.97-0.45,1.35c-1.62,1.61-3.23,3.23-4.84,4.84c-1.05,1.05-2.1,2.11-3.16,3.16c-0.71,0.71-1.44,0.71-2.15,0
		c-1.31-1.31-2.63-2.62-3.94-3.94c-0.37-0.37-0.53-0.81-0.38-1.33c0.14-0.52,0.49-0.83,1-0.95c0.51-0.11,0.92,0.07,1.28,0.43
		c0.92,0.92,1.84,1.83,2.75,2.75c0.11,0.11,0.19,0.26,0.28,0.4C22.92,27.22,22.98,27.22,23.05,27.23z"/>
</g>
</svg>
