<svg width="40" height="40" viewBox="0 0 40 40" fill="none" xmlns="http://www.w3.org/2000/svg">
<path opacity="0.35" d="M13 38C22.9411 38 31 29.9411 31 20C31 10.0589 22.9411 2 13 2V38Z" fill="#111111"/>
<path fill-rule="evenodd" clip-rule="evenodd" d="M23.2999 27C23.47 27 23.6401 26.9384 23.7752 26.8138C24.0587 26.5513 24.0762 26.1096 23.8137 25.8247L18.6367 20.2203L23.8319 14.1546C24.0832 13.8613 24.0489 13.4196 23.7549 13.1675C23.4616 12.9176 23.0199 12.9505 22.7679 13.2445L17.1682 19.7828C16.9372 20.0523 16.9449 20.452 17.1864 20.7138L22.7861 26.7753C22.924 26.9244 23.1116 27 23.2999 27Z" fill="white"/>
</svg>
