<svg width="20" height="20" viewBox="0 0 20 20" fill="none" xmlns="http://www.w3.org/2000/svg">
<path fill-rule="evenodd" clip-rule="evenodd" d="M2 4.4186C2 3.08285 3.08285 2 4.4186 2H15.5814C16.9172 2 18 3.08285 18 4.4186V15.5814C18 16.9172 16.9172 18 15.5814 18H4.4186C3.08285 18 2 16.9172 2 15.5814V4.4186ZM4.4186 3.11628C3.69935 3.11628 3.11628 3.69935 3.11628 4.4186V15.5814C3.11628 16.3006 3.69935 16.8837 4.4186 16.8837H15.5814C16.3006 16.8837 16.8837 16.3006 16.8837 15.5814V4.4186C16.8837 3.69935 16.3006 3.11628 15.5814 3.11628H4.4186Z" fill="#ACACAC"/>
</svg>
