<svg width="12" height="13" viewBox="0 0 12 13" fill="none" xmlns="http://www.w3.org/2000/svg">
<path fill-rule="evenodd" clip-rule="evenodd" d="M4.04422 3.09344C4.31466 2.239 5.11965 1.61903 6.07045 1.61903C7.02124 1.61903 7.82624 2.239 8.09668 3.09344C8.15384 3.27405 8.34735 3.37436 8.5289 3.31749C8.71044 3.26062 8.81127 3.0681 8.7541 2.88748C8.39559 1.75477 7.32975 0.933319 6.07045 0.933319C4.81115 0.933319 3.74531 1.75477 3.38679 2.88748C3.32963 3.0681 3.43045 3.26062 3.612 3.31749C3.79354 3.37436 3.98705 3.27405 4.04422 3.09344ZM10.912 5.27593L9.81908 11.0747C9.77833 11.2909 9.58857 11.4476 9.36745 11.4476H2.65857C2.43745 11.4476 2.24769 11.2909 2.20694 11.0747L1.10638 5.2352C1.06857 5.03459 1.16902 4.83335 1.35252 4.74207L2.24952 4.29587C2.31333 4.26413 2.38368 4.24761 2.45502 4.24761H9.35908C9.42337 4.24761 9.48695 4.26103 9.5457 4.28701L10.647 4.77394C10.8415 4.85997 10.9512 5.06773 10.912 5.27593ZM0.428934 5.36157C0.334414 4.86004 0.585526 4.35695 1.04427 4.12875L1.94128 3.68255C2.10079 3.6032 2.27668 3.56189 2.45502 3.56189H9.35908C9.51981 3.56189 9.67875 3.59545 9.82563 3.66039L10.9269 4.14733C11.4133 4.36241 11.6875 4.88179 11.5894 5.4023L10.4965 11.2011C10.3947 11.7416 9.92025 12.1333 9.36745 12.1333H2.65857C2.10577 12.1333 1.63136 11.7416 1.52949 11.2011L0.428934 5.36157Z" fill="#111111"/>
</svg>
