<svg width="40" height="40" viewBox="0 0 40 40" fill="none" xmlns="http://www.w3.org/2000/svg">
<path opacity="0.35" d="M28 38C18.0589 38 10 29.9411 10 20C10 10.0589 18.0589 2 28 2V38Z" fill="#111111"/>
<path fill-rule="evenodd" clip-rule="evenodd" d="M17.7001 27C17.53 27 17.3599 26.9384 17.2248 26.8138C16.9413 26.5513 16.9238 26.1096 17.1863 25.8247L22.3633 20.2203L17.1681 14.1546C16.9168 13.8613 16.9511 13.4196 17.2451 13.1675C17.5384 12.9176 17.9801 12.9505 18.2321 13.2445L23.8318 19.7828C24.0628 20.0523 24.0551 20.452 23.8136 20.7138L18.2139 26.7753C18.076 26.9244 17.8884 27 17.7001 27Z" fill="white"/>
</svg>
