<svg width="529" height="102" viewBox="0 0 529 102" fill="none" xmlns="http://www.w3.org/2000/svg">
<path fill-rule="evenodd" clip-rule="evenodd" d="M1 1H528V101H1V99C3.39211 98.9999 5.33126 97.6568 5.33126 96C5.33126 94.3432 3.39211 93.0001 1 93V89C3.39211 88.9999 5.33126 87.6568 5.33126 86C5.33126 84.3432 3.39211 83.0001 1 83V79C3.39211 78.9999 5.33126 77.6568 5.33126 76C5.33126 74.3432 3.39211 73.0001 1 73V69C3.39211 68.9999 5.33126 67.6568 5.33126 66C5.33126 64.3432 3.39211 63.0001 1 63V59C3.39211 58.9999 5.33126 57.6568 5.33126 56C5.33126 54.3432 3.39211 53.0001 1 53V49C3.39211 48.9999 5.33126 47.6568 5.33126 46C5.33126 44.3432 3.39211 43.0001 1 43V39C3.39211 38.9999 5.33126 37.6568 5.33126 36C5.33126 34.3432 3.39211 33.0001 1 33V29C3.39211 28.9999 5.33126 27.6568 5.33126 26C5.33126 24.3432 3.39211 23.0001 1 23V19C3.39211 18.9999 5.33126 17.6568 5.33126 16C5.33126 14.3432 3.39211 13.0001 1 13V9C3.39211 8.99991 5.33126 7.6568 5.33126 6C5.33126 4.3432 3.39211 3.00009 1 3V1Z" fill="white"/>
<path d="M528 1H528.5V0.5H528V1ZM1 1V0.5H0.5V1H1ZM528 101V101.5H528.5V101H528ZM1 101H0.5V101.5H1V101ZM1 99L0.999981 98.5L0.5 98.5V99H1ZM1 93H0.5V93.5L0.999981 93.5L1 93ZM1 89L0.999981 88.5L0.5 88.5V89H1ZM1 83H0.5V83.5L0.999981 83.5L1 83ZM1 79L0.999981 78.5L0.5 78.5V79H1ZM1 73H0.5V73.5L0.999981 73.5L1 73ZM1 69L0.999981 68.5L0.5 68.5V69H1ZM1 63H0.5V63.5L0.99998 63.5L1 63ZM1 59L0.99998 58.5L0.5 58.5V59H1ZM1 53H0.5V53.5L0.99998 53.5L1 53ZM1 49L0.99998 48.5L0.5 48.5V49H1ZM1 43H0.5V43.5L0.99998 43.5L1 43ZM1 39L0.99998 38.5L0.5 38.5V39H1ZM1 33H0.5V33.5L0.99998 33.5L1 33ZM1 29L0.99998 28.5L0.5 28.5V29H1ZM1 23H0.5V23.5L0.99998 23.5L1 23ZM1 19L0.99998 18.5L0.5 18.5V19H1ZM1 13H0.5V13.5L0.99998 13.5L1 13ZM1 9L0.99998 8.5L0.5 8.50002V9H1ZM1 3H0.5V3.49998L0.99998 3.5L1 3ZM528 0.5H1V1.5H528V0.5ZM528.5 101V1H527.5V101H528.5ZM1 101.5H528V100.5H1V101.5ZM0.5 99V101H1.5V99H0.5ZM1.00002 99.5C2.28495 99.5 3.46995 99.14 4.34737 98.5323C5.22284 97.9259 5.83126 97.0387 5.83126 96H4.83126C4.83126 96.618 4.4701 97.2308 3.77797 97.7102C3.08779 98.1883 2.10716 98.5 0.999981 98.5L1.00002 99.5ZM5.83126 96C5.83126 94.9613 5.22284 94.0741 4.34737 93.4677C3.46995 92.86 2.28495 92.5 1.00002 92.5L0.999981 93.5C2.10716 93.5 3.08779 93.8117 3.77797 94.2898C4.4701 94.7692 4.83126 95.382 4.83126 96H5.83126ZM0.5 89V93H1.5V89H0.5ZM4.83126 86C4.83126 86.618 4.4701 87.2308 3.77797 87.7102C3.08779 88.1883 2.10716 88.5 0.999981 88.5L1.00002 89.5C2.28495 89.5 3.46995 89.14 4.34737 88.5323C5.22284 87.9259 5.83126 87.0387 5.83126 86H4.83126ZM0.999981 83.5C2.10716 83.5 3.08779 83.8117 3.77797 84.2898C4.4701 84.7692 4.83126 85.382 4.83126 86H5.83126C5.83126 84.9613 5.22284 84.0741 4.34737 83.4677C3.46995 82.86 2.28495 82.5 1.00002 82.5L0.999981 83.5ZM0.5 79V83H1.5V79H0.5ZM4.83126 76C4.83126 76.618 4.4701 77.2308 3.77797 77.7102C3.08779 78.1883 2.10716 78.5 0.999981 78.5L1.00002 79.5C2.28495 79.5 3.46995 79.14 4.34737 78.5323C5.22284 77.9259 5.83126 77.0387 5.83126 76H4.83126ZM0.999981 73.5C2.10716 73.5 3.08779 73.8117 3.77797 74.2898C4.4701 74.7692 4.83126 75.382 4.83126 76H5.83126C5.83126 74.9613 5.22284 74.0741 4.34737 73.4677C3.46995 72.86 2.28495 72.5 1.00002 72.5L0.999981 73.5ZM0.5 69V73H1.5V69H0.5ZM4.83126 66C4.83126 66.618 4.4701 67.2308 3.77797 67.7102C3.08779 68.1883 2.10716 68.5 0.999981 68.5L1.00002 69.5C2.28495 69.5 3.46995 69.14 4.34737 68.5323C5.22284 67.9259 5.83126 67.0387 5.83126 66H4.83126ZM0.99998 63.5C2.10716 63.5 3.08779 63.8117 3.77797 64.2898C4.4701 64.7692 4.83126 65.382 4.83126 66H5.83126C5.83126 64.9613 5.22284 64.0741 4.34737 63.4677C3.46995 62.86 2.28495 62.5 1.00002 62.5L0.99998 63.5ZM0.5 59V63H1.5V59H0.5ZM4.83126 56C4.83126 56.618 4.4701 57.2308 3.77797 57.7102C3.08779 58.1883 2.10716 58.5 0.99998 58.5L1.00002 59.5C2.28495 59.5 3.46995 59.14 4.34737 58.5323C5.22284 57.9259 5.83126 57.0387 5.83126 56H4.83126ZM0.99998 53.5C2.10716 53.5 3.08779 53.8117 3.77797 54.2898C4.4701 54.7692 4.83126 55.382 4.83126 56H5.83126C5.83126 54.9613 5.22284 54.0741 4.34737 53.4677C3.46995 52.86 2.28495 52.5 1.00002 52.5L0.99998 53.5ZM0.5 49V53H1.5V49H0.5ZM4.83126 46C4.83126 46.618 4.4701 47.2308 3.77797 47.7102C3.08779 48.1883 2.10716 48.5 0.99998 48.5L1.00002 49.5C2.28495 49.5 3.46995 49.14 4.34737 48.5323C5.22284 47.9259 5.83126 47.0387 5.83126 46H4.83126ZM0.99998 43.5C2.10716 43.5 3.08779 43.8117 3.77797 44.2898C4.4701 44.7692 4.83126 45.382 4.83126 46H5.83126C5.83126 44.9613 5.22284 44.0741 4.34737 43.4677C3.46995 42.86 2.28495 42.5 1.00002 42.5L0.99998 43.5ZM0.5 39V43H1.5V39H0.5ZM4.83126 36C4.83126 36.618 4.4701 37.2308 3.77797 37.7102C3.08779 38.1883 2.10716 38.5 0.99998 38.5L1.00002 39.5C2.28495 39.5 3.46995 39.14 4.34737 38.5323C5.22284 37.9259 5.83126 37.0387 5.83126 36H4.83126ZM0.99998 33.5C2.10716 33.5 3.08779 33.8117 3.77797 34.2898C4.4701 34.7692 4.83126 35.382 4.83126 36H5.83126C5.83126 34.9613 5.22284 34.0741 4.34737 33.4677C3.46995 32.86 2.28495 32.5001 1.00002 32.5L0.99998 33.5ZM0.5 29V33H1.5V29H0.5ZM4.83126 26C4.83126 26.618 4.4701 27.2308 3.77797 27.7102C3.08779 28.1883 2.10716 28.5 0.99998 28.5L1.00002 29.5C2.28495 29.5 3.46995 29.14 4.34737 28.5323C5.22284 27.9259 5.83126 27.0387 5.83126 26H4.83126ZM0.99998 23.5C2.10716 23.5 3.08779 23.8117 3.77797 24.2898C4.4701 24.7692 4.83126 25.382 4.83126 26H5.83126C5.83126 24.9613 5.22284 24.0741 4.34737 23.4677C3.46995 22.86 2.28495 22.5 1.00002 22.5L0.99998 23.5ZM0.5 19V23H1.5V19H0.5ZM4.83126 16C4.83126 16.618 4.4701 17.2308 3.77797 17.7102C3.08779 18.1883 2.10716 18.5 0.99998 18.5L1.00002 19.5C2.28495 19.5 3.46995 19.14 4.34737 18.5323C5.22284 17.9259 5.83126 17.0387 5.83126 16H4.83126ZM0.99998 13.5C2.10716 13.5 3.08779 13.8117 3.77797 14.2898C4.4701 14.7692 4.83126 15.382 4.83126 16H5.83126C5.83126 14.9613 5.22284 14.0741 4.34737 13.4677C3.46995 12.86 2.28495 12.5001 1.00002 12.5L0.99998 13.5ZM0.5 9V13H1.5V9H0.5ZM4.83126 6C4.83126 6.61805 4.4701 7.23084 3.77797 7.71023C3.08779 8.18828 2.10716 8.49996 0.99998 8.5L1.00002 9.5C2.28495 9.49995 3.46995 9.14003 4.34737 8.5323C5.22284 7.92591 5.83126 7.03875 5.83126 6H4.83126ZM0.99998 3.5C2.10716 3.50004 3.08779 3.81172 3.77797 4.28977C4.4701 4.76916 4.83126 5.38195 4.83126 6H5.83126C5.83126 4.96125 5.22284 4.07409 4.34737 3.4677C3.46995 2.85997 2.28495 2.50005 1.00002 2.5L0.99998 3.5ZM0.5 1V3H1.5V1H0.5Z" fill="#F0F0F0"/>
</svg>
